<svg xmlns="http://www.w3.org/2000/svg" xmlns:xlink="http://www.w3.org/1999/xlink" version="1.1" id="Calque_1" x="0px" y="0px" width="100px" height="100px" viewBox="0 0 100 100" enable-background="new 0 0 100 100" xml:space="preserve">
<g>
	<path d="M88.539,16.481l-9.46-9.46c0,0-2.364-2.364-7.095,2.366C67.256,14.117,31.78,44.861,31.78,44.861l1.841,1.842   c7.949-7.45,37.05-33.911,38.41-35.147c0.228-0.206,0.582-0.19,0.788,0.037c0.207,0.228,0.19,0.58-0.037,0.788   c-0.335,0.303-30.303,27.552-38.373,35.11L50.7,63.78c0,0,30.743-35.475,35.471-40.202C90.903,18.846,88.539,16.481,88.539,16.481z   "/>
	<path d="M29.416,47.226c0,0-7.096,7.097-4.732,9.46l0.898,0.898c0.973-1.822,3.237-5.843,5.653-8.539L29.416,47.226z"/>
	<path d="M38.876,70.875c2.364,2.366,9.46-4.73,9.46-4.73l-16.311-16.31c-2.432,2.735-4.777,6.985-5.617,8.574L38.876,70.875z"/>
	<polygon points="36.508,73.241 22.32,59.052 22.32,63.78 31.78,73.241  "/>
	<path d="M17.887,82.203c1.21-1.014,2.069-1.868,2.069-1.868l9.46-4.73l-9.46-9.46l-4.731,9.46c0,0-7.096,7.097-4.728,9.46   c0.434,0.435,1.028,0.545,1.707,0.444v0.039h43.482l-3.347-3.345H17.887z"/>
</g>
</svg>