<svg xmlns="http://www.w3.org/2000/svg" xmlns:xlink="http://www.w3.org/1999/xlink" version="1.1" x="0px" y="0px" width="100px" height="100px" viewBox="0 0 100 100" enable-background="new 0 0 100 100" xml:space="preserve">
<g id="Captions">
</g>
<g id="Your_Icon">
	<g>
		<polygon points="17.091,78.69 36.507,78.69 38.322,71.854 17.091,71.854   "/>
		<path d="M41.656,59.298c0.218-0.815,0.589-1.576,1.082-2.255H17.091v6.836h23.35L41.656,59.298z"/>
		<polygon points="67.222,32.43 67.222,27.42 17.091,27.42 17.091,34.256 65.395,34.256   "/>
		<path d="M75.195,89.885H9.114V10.132h15.383c0,3.461,2.806,6.267,6.266,6.267H53.55c3.46,0,6.266-2.806,6.266-6.267h15.38v14.324    l3.705-3.705c1.517-1.516,3.388-2.523,5.41-2.947v-7.672c0-5.033-4.081-9.114-9.115-9.114H9.114C4.08,1.018,0,5.099,0,10.132    v79.753C0,94.919,4.08,99,9.114,99h66.081c5.034,0,9.115-4.081,9.115-9.115V64.55l-9.115,9.115V89.885z"/>
		<polygon points="57.417,42.231 17.091,42.231 17.091,49.067 50.581,49.067   "/>
		<path d="M98.208,33.911l-7.467-7.467c-2.053-2.054-4.952-2.913-7.01-0.856L48.264,61.053l-5.397,20.323l20.335-5.384    l35.474-35.476C100.725,38.465,100.262,35.962,98.208,33.911z M46.736,77.908l1.81-6.819l5.005,5.012L46.736,77.908z     M86.539,37.718L56.933,67.319L53.4,63.785l29.26-29.271c0.516-0.518,2.357,0.149,2.871,0.666    C86.048,35.694,87.05,37.203,86.539,37.718z"/>
	</g>
</g>
</svg>