<svg xmlns="http://www.w3.org/2000/svg" xmlns:xlink="http://www.w3.org/1999/xlink" version="1.1" x="0px" y="0px" width="100px" height="100px" viewBox="0 0 100 100" enable-background="new 0 0 100 100" xml:space="preserve">
<g id="quote">
	<polygon points="45.454,16.378 11.119,16.378 11.119,50.713 29.547,77.188 42.673,67.431 31.152,50.713 45.454,50.713  "/>
	<polygon points="87.528,16.378 53.192,16.378 53.192,50.713 71.621,77.188 84.747,67.431 73.226,50.713 87.528,50.713  "/>
</g>
<g id="Layer_2" display="none">
	<path display="inline" d="M85.871,8.649h-71.28c-6.418,0-11.622,5.204-11.622,11.622v52.493c0,6.419,5.203,11.623,11.622,11.623   h9.113l0.005,9.593l11.995-9.593h50.167c6.419,0,11.622-5.204,11.622-11.623V20.271C97.493,13.853,92.29,8.649,85.871,8.649z    M54.03,71.383H44.022V61.374H54.03V71.383z M60.952,46.323c-4.144,1.583-6.801,4.637-6.801,9.194H43.9   c0-11.616,7.412-15.111,12.133-16.251c2.895-0.699,5.68-1.612,5.837-5.55c0.127-3.175-1.732-7.088-9.608-6.931   c-8.728,0.175-9.312,6.569-9.34,8.69l-10.251,0.127c-0.013-0.696,0.004-6.946,4.86-11.901c3.597-3.671,8.696-5.532,15.155-5.532   c15.059,0,18.809,9.585,19.039,14.646C72.109,41.277,65.453,44.604,60.952,46.323z"/>
</g>
</svg>