<svg xmlns="http://www.w3.org/2000/svg" xmlns:xlink="http://www.w3.org/1999/xlink" version="1.1" id="Your_Icon" x="0px" y="0px" width="100px" height="100px" viewBox="0 0 100 100" enable-background="new 0 0 100 100" xml:space="preserve">
<path fill="#000000" d="M9.426,74.534c0-1.261,0.25-2.453,0.614-3.595H0v7.188h10.04C9.675,76.986,9.426,75.794,9.426,74.534z"/>
<path fill="#000000" d="M32.829,74.336c0,1.26-0.25,2.452-0.615,3.594H100v-7.188H32.214C32.579,71.883,32.829,73.076,32.829,74.336  z"/>
<path fill="#000000" d="M29.583,83.048c-2.145,2.078-5.051,3.375-8.269,3.375c-3.218,0-6.124-1.297-8.27-3.375H0V91h100v-7.952  H29.583z"/>
<path fill="#000000" d="M21.314,67.979c-3.614,0-6.556,2.941-6.556,6.557s2.942,6.556,6.556,6.556c3.614,0,6.556-2.94,6.556-6.556  S24.929,67.979,21.314,67.979z"/>
<path fill="#000000" d="M0,9.893v56.251h12.899c2.155-2.16,5.129-3.498,8.415-3.498s6.259,1.338,8.416,3.498H100V9.893H0z   M49.997,57.688c-9.8,0-17.742-7.952-17.742-17.763c0-9.806,7.942-17.752,17.742-17.752c9.815,0,17.763,7.946,17.763,17.752  C67.76,49.735,59.813,57.688,49.997,57.688z"/>
<path fill="#000000" d="M43.748,51.661c-1.025,0.548-1.781,0.12-1.781-1.071V29.218c0-1.141,0.755-1.619,1.781-1.026l18.514,10.692  c1.021,0.587,1.021,1.509,0,2.103L43.748,51.661z"/>
</svg>