<svg xmlns="http://www.w3.org/2000/svg" xmlns:xlink="http://www.w3.org/1999/xlink" version="1.1" id="Calque_1" x="0px" y="0px" width="100px" height="100px" viewBox="0 0 100 100" enable-background="new 0 0 100 100" xml:space="preserve">
<path d="M91.886,40.31c-0.092-0.045-0.192-0.062-0.288-0.094c-0.031-0.014-0.063-0.019-0.096-0.031  c-0.094-0.027-0.186-0.062-0.281-0.077c-0.581-0.155-1.204-0.124-1.765,0.159c-1.409,0.712-2.649,1.072-3.688,1.072  c-2.056,0-3.498-1.428-5.681-3.758c-2.524-2.695-5.665-6.048-11.08-6.048c-3.594,0-7.769,1.548-12.68,4.681  c-3.606-9.377-8.222-13.621-14.727-13.621c-1.834,0-3.556,0.319-5.22,0.628c-1.403,0.26-2.729,0.506-3.903,0.506c0,0,0,0-0.002,0  c-1.578,0-3.415-0.302-5.234-3.899c-0.455-0.9-1.399-1.435-2.416-1.362c-0.614,0.047-1.157,0.335-1.572,0.756  c-0.035,0.034-0.066,0.069-0.101,0.105c-0.106,0.122-0.199,0.251-0.281,0.395c-0.024,0.04-0.061,0.07-0.081,0.112  c0,0-4.604,9.186-4.639,9.293L6.279,65.512c-0.309,0.944,0.032,1.979,0.841,2.557c0.305,0.218,0.708,0.524,1.148,0.859  c1.385,1.054,2.427,1.832,3.22,2.249c5.505,2.896,10.581,3.183,15.06,3.435c4.534,0.255,8.185,0.461,11.312,3.241l-0.099,1.175  c-0.086,1.028,0.531,1.985,1.503,2.331l3.522,1.153c0.989,0.301,2.053-0.109,2.592-0.99l0.612-0.999  c4.264-0.344,8.083,2.06,12.544,4.894c5.261,3.34,11.223,7.126,19.498,7.236c0.011,0,0.021,0.001,0.03,0.001  c0.979,0,1.849-0.627,2.158-1.558l12.652-38.07c0.073-0.219,0.281-10.638,0.281-10.638C93.17,41.507,92.675,40.698,91.886,40.31z   M57.172,41.641c4.871-3.396,8.851-5.115,11.836-5.115c3.252,0,5.19,2.07,7.437,4.469c2.345,2.501,4.999,5.337,9.324,5.337  c0.311,0,0.624-0.014,0.939-0.044L76.443,77.512c-1.037,0.435-1.97,0.653-2.779,0.653c0,0,0,0-0.001,0  c-2.053,0-3.492-1.428-5.671-3.756c-2.522-2.696-5.662-6.051-11.078-6.051c-2.775,0-5.893,0.912-9.431,2.771L57.172,41.641z   M32.479,28.72C32.479,28.72,32.479,28.72,32.479,28.72c1.633-0.001,3.249-0.3,4.812-0.59c1.51-0.28,2.936-0.545,4.311-0.545  c2.153,0,6.585,0.001,10.826,12.498l-9.685,29.479c-3.374-6.965-7.596-10.144-13.237-10.144c-1.836,0-3.559,0.32-5.225,0.63  c-1.405,0.262-2.731,0.508-3.905,0.508c-1.437,0-3.087-0.251-4.745-3.02l10.257-31.242C27.711,27.921,29.894,28.72,32.479,28.72z"/>
</svg>