<svg xmlns="http://www.w3.org/2000/svg" xmlns:xlink="http://www.w3.org/1999/xlink" version="1.1" id="Layer_1" x="0px" y="0px" width="100px" height="100px" viewBox="0 0 100 100" enable-background="new 0 0 100 100" xml:space="preserve">
<path d="M97.936,78.607L60.305,12.223c-4.896-8.639-13.063-8.729-18.146-0.197L2.356,78.805c-5.084,8.531-1.12,15.511,8.812,15.511  h77.614C98.715,94.315,102.832,87.247,97.936,78.607z M51.308,82.675c-2.841,0-5.14-2.345-5.14-5.238s2.299-5.238,5.14-5.238  c2.84,0,5.142,2.345,5.142,5.238S54.147,82.675,51.308,82.675z M58.096,42.665l-6.788,24.457L44.52,42.665  c-0.448-2.908-0.674-6.817-0.674-7.521c0-1.734,1.917-5.299,3.405-6.27c1.49-0.97,2.09-1.536,4.057-1.536  c1.91,0,2.513,0.551,4.057,1.492c1.547,0.94,3.406,4.535,3.406,6.356C58.771,36.216,58.546,40.109,58.096,42.665z"/>
</svg>