<svg xmlns="http://www.w3.org/2000/svg" xmlns:xlink="http://www.w3.org/1999/xlink" version="1.1" id="Layer_1" x="0px" y="0px" width="100px" height="100px" viewBox="0 0 100 100" enable-background="new 0 0 100 100" xml:space="preserve">
<path fill="#000000" d="M66.853,69.518c-1.759,0.74-3.783-0.085-4.524-1.843c-0.74-1.759,0.086-3.783,1.844-4.522  c0.828-0.353,1.647-0.803,2.445-1.34c0.769-0.518,1.491-1.117,2.162-1.785c0.668-0.67,1.27-1.395,1.785-2.162  c0.538-0.797,0.988-1.617,1.339-2.446c0.374-0.886,0.663-1.808,0.854-2.761c0.181-0.893,0.275-1.86,0.275-2.9  s-0.096-2.01-0.275-2.901c-0.191-0.952-0.48-1.875-0.854-2.76c-0.351-0.829-0.801-1.649-1.339-2.445  c-0.518-0.768-1.117-1.492-1.785-2.162c-1.332-1.331-2.895-2.399-4.607-3.125c-1.758-0.74-2.584-2.766-1.844-4.523  c0.741-1.759,2.767-2.583,4.524-1.843c2.59,1.097,4.905,2.664,6.83,4.588c0.966,0.966,1.846,2.034,2.625,3.19  c0.748,1.109,1.407,2.326,1.962,3.638c0.548,1.297,0.975,2.664,1.262,4.088c0.286,1.42,0.438,2.845,0.438,4.256  s-0.15,2.836-0.438,4.256c-0.287,1.426-0.714,2.791-1.262,4.087c-0.555,1.312-1.214,2.53-1.962,3.64  c-0.779,1.156-1.659,2.226-2.625,3.19c-0.966,0.966-2.036,1.847-3.19,2.627C69.383,68.303,68.164,68.962,66.853,69.518z"/>
<path fill="#000000" d="M73.136,81.207c-1.759,0.74-3.783-0.084-4.524-1.842c-0.74-1.758,0.085-3.783,1.844-4.524  c1.584-0.67,3.121-1.511,4.59-2.501c1.447-0.975,2.805-2.098,4.051-3.344s2.367-2.603,3.343-4.049c0.99-1.469,1.83-3.006,2.501-4.59  c0.699-1.654,1.239-3.386,1.602-5.175c0.345-1.708,0.525-3.521,0.525-5.426s-0.182-3.719-0.525-5.427  c-0.361-1.787-0.901-3.52-1.602-5.173c-0.671-1.584-1.511-3.122-2.501-4.591c-0.976-1.446-2.097-2.803-3.343-4.049  s-2.604-2.367-4.051-3.343c-1.469-0.99-3.006-1.83-4.59-2.501c-1.759-0.741-2.584-2.768-1.844-4.524  c0.741-1.758,2.768-2.583,4.524-1.842c2.067,0.874,4.003,1.923,5.784,3.124c1.836,1.238,3.535,2.639,5.078,4.182  s2.944,3.244,4.183,5.079c1.2,1.782,2.25,3.717,3.124,5.784c0.874,2.063,1.55,4.24,2.007,6.5C93.764,45.214,94,47.481,94,49.757  c0,2.274-0.236,4.544-0.688,6.78c-0.457,2.261-1.133,4.437-2.007,6.5c-0.874,2.066-1.924,4.002-3.124,5.783  c-1.237,1.836-2.64,3.537-4.183,5.08c-1.543,1.541-3.244,2.943-5.08,4.182C77.138,79.283,75.203,80.332,73.136,81.207z"/>
<path fill="#000000" d="M46.121,17.202c-6.903,5.197-13.808,10.396-20.712,15.592H11.966C8.686,32.794,6,35.479,6,38.759v22.483  c0,3.281,2.686,5.965,5.966,5.965h13.442c6.904,5.197,13.81,10.395,20.712,15.592c3.147,2.367,6.793,1.988,6.793-2.121  c0-20.451,0-40.903,0-61.354C52.914,15.214,49.269,14.833,46.121,17.202z"/>
</svg>